<?xml version="1.0" encoding="utf-8"?>
<!-- Generator: Adobe Illustrator 26.0.3, SVG Export Plug-In . SVG Version: 6.00 Build 0)  -->
<svg version="1.1" id="Layer_1" xmlns="http://www.w3.org/2000/svg" xmlns:xlink="http://www.w3.org/1999/xlink" x="0px" y="0px"
	 viewBox="0 0 955.125 167.935" style="enable-background:new 0 0 955.125 167.935;" xml:space="preserve">
<style type="text/css">
	.st0{fill:#EA7603;}
</style>
<g>
	<path class="st0" d="M1.852,36.234V3.164c0-1.453,1.219-2.648,2.648-2.648h16.898c1.43,0,2.648,1.195,2.648,2.648
		c0,1.43-1.219,2.625-2.648,2.625H7.148v11.109H17.18c1.43,0,2.625,1.195,2.625,2.625c0,1.453-1.195,2.648-2.625,2.648H7.148v14.062
		c0,1.43-1.219,2.625-2.648,2.625S1.852,37.664,1.852,36.234z"/>
	<path class="st0" d="M35.977,35.555L44.32,2.531c0.328-1.289,1.242-2.297,2.695-2.297c1.477,0,2.391,1.055,2.719,2.344
		l8.227,33.023c0.422,1.688-0.914,3.258-2.555,3.258c-1.195,0-2.297-0.797-2.602-2.062l-1.57-6.422h-8.508l-1.664,6.469
		c-0.281,1.125-1.266,2.016-2.555,2.016C36.891,38.859,35.531,37.289,35.977,35.555z M49.898,25.102l-2.883-11.578l-2.977,11.578
		H49.898z"/>
	<path class="st0" d="M91.055,37.758L78.656,24.656v11.578c0,1.43-1.195,2.625-2.625,2.625c-1.453,0-2.648-1.195-2.648-2.625V2.859
		c0-1.43,1.195-2.625,2.648-2.625c1.43,0,2.625,1.195,2.625,2.625v10.523L90.188,1.102c0.516-0.539,1.195-0.867,1.969-0.867
		c1.43,0,2.648,1.195,2.648,2.625c0,0.914-0.422,1.453-0.773,1.828L80.625,19.055l14.508,15.352
		c0.469,0.492,0.773,1.195,0.773,1.828c0,1.43-1.219,2.625-2.648,2.625C92.344,38.859,91.664,38.391,91.055,37.758z"/>
	<path class="st0" d="M107.648,27.984V2.859c0-1.477,1.148-2.625,2.625-2.625c1.5,0,2.648,1.148,2.648,2.625v25.125
		c0,3.562,2.25,5.859,5.812,5.859c3.492,0,5.789-2.297,5.789-5.859V2.859c0-1.477,1.172-2.625,2.648-2.625
		c1.5,0,2.648,1.148,2.648,2.625v25.125c0,6.352-4.805,11.133-11.086,11.133C112.383,39.117,107.648,34.336,107.648,27.984z"/>
	<path class="st0" d="M145.688,35.953V2.859c0-1.43,1.195-2.625,2.625-2.625c1.453,0,2.648,1.195,2.648,2.625v30.445h14.25
		c1.453,0,2.648,1.195,2.648,2.648c0,1.43-1.195,2.625-2.648,2.625h-16.898C146.883,38.578,145.688,37.383,145.688,35.953z"/>
	<path class="st0" d="M187.898,36.234V5.789h-7.289c-1.406,0-2.648-1.195-2.648-2.625c0-1.453,1.195-2.648,2.648-2.648h19.758
		c1.453,0,2.648,1.195,2.648,2.648c0,1.43-1.195,2.625-2.648,2.625h-7.195v30.445c0,1.43-1.195,2.625-2.625,2.625
		C189.141,38.859,187.898,37.664,187.898,36.234z"/>
	<path class="st0" d="M215.391,35.555l8.344-33.023c0.328-1.289,1.242-2.297,2.695-2.297c1.477,0,2.391,1.055,2.719,2.344
		l8.227,33.023c0.422,1.688-0.914,3.258-2.555,3.258c-1.195,0-2.297-0.797-2.602-2.062l-1.57-6.422h-8.508l-1.664,6.469
		c-0.281,1.125-1.266,2.016-2.555,2.016C216.305,38.859,214.945,37.289,215.391,35.555z M229.312,25.102l-2.883-11.578
		l-2.977,11.578H229.312z"/>
	<path class="st0" d="M285.422,36.234V2.859c0-1.43,1.195-2.625,2.648-2.625c1.43,0,2.156,1.055,2.531,1.781l7.594,13.008
		l7.383-12.773c0.82-1.453,1.734-2.016,2.789-2.016c1.336,0,2.484,1.148,2.484,2.625v33.375c0,1.43-1.195,2.625-2.625,2.625
		c-1.453,0-2.648-1.195-2.648-2.625V12.844l-4.664,7.922c-0.656,1.102-1.336,1.969-2.719,1.969c-1.406,0-2.109-0.914-2.742-1.969
		l-4.758-8.062v23.531c0,1.43-1.195,2.625-2.625,2.625C286.617,38.859,285.422,37.664,285.422,36.234z"/>
	<path class="st0" d="M324.656,35.953V3.164c0-1.453,1.195-2.648,2.648-2.648h16.898c1.43,0,2.625,1.195,2.625,2.648
		c0,1.43-1.195,2.625-2.625,2.625h-14.25v11.109h10.031c1.43,0,2.625,1.195,2.625,2.625c0,1.453-1.195,2.648-2.625,2.648h-10.031
		v11.133h14.25c1.43,0,2.625,1.195,2.625,2.648c0,1.43-1.195,2.625-2.625,2.625h-16.898
		C325.852,38.578,324.656,37.383,324.656,35.953z"/>
	<path class="st0" d="M358.828,27.984V11.086C358.828,4.781,363.609,0,369.961,0C376.242,0,381,4.781,381,11.086
		c0,1.477-1.148,2.625-2.648,2.625c-1.477,0-2.648-1.148-2.648-2.625c0-3.516-2.25-5.812-5.742-5.812
		c-3.562,0-5.859,2.297-5.859,5.812v16.898c0,3.539,2.297,5.836,5.859,5.836c3.492,0,5.742-2.297,5.742-5.836
		c0-1.5,1.172-2.648,2.648-2.648c1.5,0,2.648,1.148,2.648,2.648c0,6.328-4.758,11.133-11.039,11.133
		C363.609,39.117,358.828,34.312,358.828,27.984z"/>
	<path class="st0" d="M394.711,36.234V2.859c0-1.43,1.195-2.625,2.625-2.625c1.453,0,2.648,1.195,2.648,2.625v14.32h11.602V2.859
		c0-1.43,1.219-2.625,2.648-2.625s2.648,1.195,2.648,2.625v33.375c0,1.43-1.219,2.625-2.648,2.625s-2.648-1.195-2.648-2.625V22.453
		h-11.602v13.781c0,1.43-1.195,2.625-2.648,2.625C395.906,38.859,394.711,37.664,394.711,36.234z"/>
	<path class="st0" d="M430.688,35.555l8.344-33.023c0.328-1.289,1.242-2.297,2.695-2.297c1.477,0,2.391,1.055,2.719,2.344
		l8.227,33.023c0.422,1.688-0.914,3.258-2.555,3.258c-1.195,0-2.297-0.797-2.602-2.062l-1.57-6.422h-8.508l-1.664,6.469
		c-0.281,1.125-1.266,2.016-2.555,2.016C431.602,38.859,430.242,37.289,430.688,35.555z M444.609,25.102l-2.883-11.578
		l-2.977,11.578H444.609z"/>
	<path class="st0" d="M474.961,36.234V5.789h-7.289c-1.406,0-2.648-1.195-2.648-2.625c0-1.453,1.195-2.648,2.648-2.648h19.758
		c1.453,0,2.648,1.195,2.648,2.648c0,1.43-1.195,2.625-2.648,2.625h-7.195v30.445c0,1.43-1.195,2.625-2.625,2.625
		C476.203,38.859,474.961,37.664,474.961,36.234z"/>
	<path class="st0" d="M503.25,36.234V3.164c0-1.453,1.219-2.648,2.648-2.648h8.508c6.469,0,11.039,4.805,11.039,11.086
		c0,4.992-2.883,9.07-7.125,10.477l6.727,12.82c1.008,1.688-0.094,3.961-2.25,3.961c-1.43,0-2.203-1.148-2.555-1.758l-7.523-14.367
		h-4.172v13.5c0,1.43-1.195,2.625-2.648,2.625C504.469,38.859,503.25,37.664,503.25,36.234z M514.406,17.461
		c3.492,0,5.742-2.297,5.742-5.859c0-3.492-2.25-5.812-5.742-5.812h-5.859v11.672H514.406z"/>
	<path class="st0" d="M538.242,27.984V11.086C538.242,4.828,542.789,0,549.375,0c6.516,0,11.039,4.828,11.039,11.086v16.898
		c0,6.281-4.523,11.133-11.039,11.133C542.789,39.117,538.242,34.266,538.242,27.984z M549.375,33.82
		c3.492,0,5.742-2.297,5.742-5.836V11.086c0-3.516-2.25-5.812-5.742-5.812c-3.562,0-5.859,2.297-5.859,5.812v16.898
		C543.516,31.523,545.812,33.82,549.375,33.82z"/>
	<path class="st0" d="M573.633,36.234V2.859c0-1.43,1.195-2.625,2.695-2.625c1.008,0,1.805,0.516,2.344,1.523l12.82,24.047V2.859
		c0-1.43,1.195-2.625,2.648-2.625c1.43,0,2.625,1.195,2.625,2.625v33.375c0,1.43-1.195,2.625-2.625,2.625
		c-1.078,0-1.945-0.562-2.508-1.617l-12.727-23.836v22.828c0,1.43-1.195,2.625-2.625,2.625
		C574.828,38.859,573.633,37.664,573.633,36.234z"/>
	<path class="st0" d="M610.007,35.953c0-1.453,1.195-2.648,2.625-2.648h5.812V5.789h-5.812c-1.43,0-2.625-1.195-2.625-2.625
		c0-1.453,1.195-2.648,2.625-2.648h16.898c1.43,0,2.648,1.195,2.648,2.648c0,1.43-1.219,2.625-2.648,2.625h-5.812v27.516h5.812
		c1.43,0,2.648,1.195,2.648,2.648c0,1.43-1.219,2.625-2.648,2.625h-16.898C611.203,38.578,610.007,37.383,610.007,35.953z"/>
	<path class="st0" d="M665.179,37.758l-12.398-13.102v11.578c0,1.43-1.195,2.625-2.625,2.625c-1.453,0-2.648-1.195-2.648-2.625
		V2.859c0-1.43,1.195-2.625,2.648-2.625c1.43,0,2.625,1.195,2.625,2.625v10.523l11.531-12.281c0.516-0.539,1.195-0.867,1.969-0.867
		c1.43,0,2.648,1.195,2.648,2.625c0,0.914-0.422,1.453-0.773,1.828L654.75,19.055l14.508,15.352
		c0.469,0.492,0.773,1.195,0.773,1.828c0,1.43-1.219,2.625-2.648,2.625C666.468,38.859,665.789,38.391,665.179,37.758z"/>
	<path class="st0" d="M690.257,36.234V20.016l-8.016-16.031c-0.094-0.258-0.234-0.68-0.234-1.125c0-1.43,1.195-2.625,2.625-2.625
		c1.055,0,1.922,0.68,2.367,1.477l5.906,11.672l5.789-11.672c0.445-0.797,1.312-1.477,2.367-1.477c1.43,0,2.625,1.195,2.625,2.625
		c0,0.445-0.141,0.867-0.234,1.125l-7.922,16.031v16.219c0,1.43-1.195,2.625-2.625,2.625
		C691.5,38.859,690.257,37.664,690.257,36.234z"/>
	<path class="st0" d="M722.601,42.938c0-0.727,0.281-1.383,0.75-1.875l0.492-0.492c1.594-1.594,2.883-4.898,2.883-7.664v-0.961
		c0-1.453,1.172-2.648,2.625-2.648S732,30.492,732,31.945v0.961c0,3.914-1.898,8.883-4.406,11.414l-0.492,0.492
		c-0.492,0.469-1.148,0.773-1.875,0.773C723.773,45.586,722.601,44.391,722.601,42.938z"/>
	<path class="st0" d="M0,93.553c0-1.453,1.195-2.648,2.625-2.648h5.812V63.389H2.625C1.195,63.389,0,62.194,0,60.764
		c0-1.453,1.195-2.648,2.625-2.648h16.898c1.43,0,2.648,1.195,2.648,2.648c0,1.43-1.219,2.625-2.648,2.625h-5.812v27.516h5.812
		c1.43,0,2.648,1.195,2.648,2.648c0,1.43-1.219,2.625-2.648,2.625H2.625C1.195,96.178,0,94.983,0,93.553z"/>
	<path class="st0" d="M35.391,93.834V60.459c0-1.43,1.195-2.625,2.695-2.625c1.008,0,1.805,0.516,2.344,1.523l12.82,24.047V60.459
		c0-1.43,1.195-2.625,2.648-2.625c1.43,0,2.625,1.195,2.625,2.625v33.375c0,1.43-1.195,2.625-2.625,2.625
		c-1.078,0-1.945-0.562-2.508-1.617L40.664,71.006v22.828c0,1.43-1.195,2.625-2.625,2.625
		C36.586,96.459,35.391,95.264,35.391,93.834z"/>
	<path class="st0" d="M73.617,93.834v-33.07c0-1.453,1.219-2.648,2.648-2.648h16.898c1.43,0,2.648,1.195,2.648,2.648
		c0,1.43-1.219,2.625-2.648,2.625h-14.25v11.109h10.031c1.43,0,2.625,1.195,2.625,2.625c0,1.453-1.195,2.648-2.625,2.648H78.914
		v14.062c0,1.43-1.219,2.625-2.648,2.625S73.617,95.264,73.617,93.834z"/>
	<path class="st0" d="M107.648,85.584V68.686c0-6.258,4.547-11.086,11.133-11.086c6.516,0,11.039,4.828,11.039,11.086v16.898
		c0,6.281-4.523,11.133-11.039,11.133C112.195,96.717,107.648,91.866,107.648,85.584z M118.781,91.42
		c3.492,0,5.742-2.297,5.742-5.836V68.686c0-3.516-2.25-5.812-5.742-5.812c-3.562,0-5.859,2.297-5.859,5.812v16.898
		C112.922,89.124,115.219,91.42,118.781,91.42z"/>
	<path class="st0" d="M144.422,93.834v-33.07c0-1.453,1.219-2.648,2.648-2.648h8.508c6.469,0,11.039,4.805,11.039,11.086
		c0,4.992-2.883,9.07-7.125,10.477l6.727,12.82c1.008,1.688-0.094,3.961-2.25,3.961c-1.43,0-2.203-1.148-2.555-1.758l-7.523-14.367
		h-4.172v13.5c0,1.43-1.195,2.625-2.648,2.625C145.641,96.459,144.422,95.264,144.422,93.834z M155.578,75.061
		c3.492,0,5.742-2.297,5.742-5.859c0-3.492-2.25-5.812-5.742-5.812h-5.859v11.672H155.578z"/>
	<path class="st0" d="M177.773,93.834V60.459c0-1.43,1.195-2.625,2.648-2.625c1.43,0,2.156,1.055,2.531,1.781l7.594,13.008
		l7.383-12.773c0.82-1.453,1.734-2.016,2.789-2.016c1.336,0,2.484,1.148,2.484,2.625v33.375c0,1.43-1.195,2.625-2.625,2.625
		c-1.453,0-2.648-1.195-2.648-2.625V70.444l-4.664,7.922c-0.656,1.102-1.336,1.969-2.719,1.969c-1.406,0-2.109-0.914-2.742-1.969
		l-4.758-8.062v23.531c0,1.43-1.195,2.625-2.625,2.625C178.969,96.459,177.773,95.264,177.773,93.834z"/>
	<path class="st0" d="M215.391,93.155l8.344-33.023c0.328-1.289,1.242-2.297,2.695-2.297c1.477,0,2.391,1.055,2.719,2.344
		l8.227,33.023c0.422,1.688-0.914,3.258-2.555,3.258c-1.195,0-2.297-0.797-2.602-2.062l-1.57-6.422h-8.508l-1.664,6.469
		c-0.281,1.125-1.266,2.016-2.555,2.016C216.305,96.459,214.945,94.889,215.391,93.155z M229.312,82.702l-2.883-11.578
		l-2.977,11.578H229.312z"/>
	<path class="st0" d="M259.664,93.834V63.389h-7.289c-1.406,0-2.648-1.195-2.648-2.625c0-1.453,1.195-2.648,2.648-2.648h19.758
		c1.453,0,2.648,1.195,2.648,2.648c0,1.43-1.195,2.625-2.648,2.625h-7.195v30.445c0,1.43-1.195,2.625-2.625,2.625
		C260.906,96.459,259.664,95.264,259.664,93.834z"/>
	<path class="st0" d="M287.062,93.553c0-1.453,1.195-2.648,2.625-2.648h5.812V63.389h-5.812c-1.43,0-2.625-1.195-2.625-2.625
		c0-1.453,1.195-2.648,2.625-2.648h16.898c1.43,0,2.648,1.195,2.648,2.648c0,1.43-1.219,2.625-2.648,2.625h-5.812v27.516h5.812
		c1.43,0,2.648,1.195,2.648,2.648c0,1.43-1.219,2.625-2.648,2.625h-16.898C288.258,96.178,287.062,94.983,287.062,93.553z"/>
	<path class="st0" d="M342.234,95.358l-12.398-13.102v11.578c0,1.43-1.195,2.625-2.625,2.625c-1.453,0-2.648-1.195-2.648-2.625
		V60.459c0-1.43,1.195-2.625,2.648-2.625c1.43,0,2.625,1.195,2.625,2.625v10.523l11.531-12.281c0.516-0.539,1.195-0.867,1.969-0.867
		c1.43,0,2.648,1.195,2.648,2.625c0,0.914-0.422,1.453-0.773,1.828l-13.406,14.367l14.508,15.352
		c0.469,0.492,0.773,1.195,0.773,1.828c0,1.43-1.219,2.625-2.648,2.625C343.523,96.459,342.844,95.991,342.234,95.358z"/>
	<path class="st0" d="M367.312,93.834V77.616l-8.016-16.031c-0.094-0.258-0.234-0.68-0.234-1.125c0-1.43,1.195-2.625,2.625-2.625
		c1.055,0,1.922,0.68,2.367,1.477l5.906,11.672l5.789-11.672c0.445-0.797,1.312-1.477,2.367-1.477c1.43,0,2.625,1.195,2.625,2.625
		c0,0.445-0.141,0.867-0.234,1.125l-7.922,16.031v16.219c0,1.43-1.195,2.625-2.625,2.625
		C368.555,96.459,367.312,95.264,367.312,93.834z"/>
	<path class="st0" d="M430.688,93.155l8.344-33.023c0.328-1.289,1.242-2.297,2.695-2.297c1.477,0,2.391,1.055,2.719,2.344
		l8.227,33.023c0.422,1.688-0.914,3.258-2.555,3.258c-1.195,0-2.297-0.797-2.602-2.062l-1.57-6.422h-8.508l-1.664,6.469
		c-0.281,1.125-1.266,2.016-2.555,2.016C431.602,96.459,430.242,94.889,430.688,93.155z M444.609,82.702l-2.883-11.578
		l-2.977,11.578H444.609z"/>
	<path class="st0" d="M500.719,93.834V60.459c0-1.43,1.195-2.625,2.648-2.625c1.43,0,2.156,1.055,2.531,1.781l7.594,13.008
		l7.383-12.773c0.82-1.453,1.734-2.016,2.789-2.016c1.336,0,2.484,1.148,2.484,2.625v33.375c0,1.43-1.195,2.625-2.625,2.625
		c-1.453,0-2.648-1.195-2.648-2.625V70.444l-4.664,7.922c-0.656,1.102-1.336,1.969-2.719,1.969c-1.406,0-2.109-0.914-2.742-1.969
		l-4.758-8.062v23.531c0,1.43-1.195,2.625-2.625,2.625C501.914,96.459,500.719,95.264,500.719,93.834z"/>
	<path class="st0" d="M539.953,93.553V60.764c0-1.453,1.195-2.648,2.648-2.648H559.5c1.43,0,2.625,1.195,2.625,2.648
		c0,1.43-1.195,2.625-2.625,2.625h-14.25v11.109h10.031c1.43,0,2.625,1.195,2.625,2.625c0,1.453-1.195,2.648-2.625,2.648H545.25
		v11.133h14.25c1.43,0,2.625,1.195,2.625,2.648c0,1.43-1.195,2.625-2.625,2.625h-16.898
		C541.148,96.178,539.953,94.983,539.953,93.553z"/>
	<path class="st0" d="M575.062,91.772l14.461-28.383H576.75c-1.43,0-2.625-1.195-2.625-2.625c0-1.453,1.195-2.648,2.625-2.648
		h16.477c2.438,0,3.773,2.203,2.672,4.43l-14.438,28.359h12.188c1.43,0,2.648,1.195,2.648,2.648c0,1.43-1.219,2.625-2.648,2.625
		h-15.891C575.32,96.178,573.961,93.975,575.062,91.772z"/>
	<path class="st0" d="M610.007,93.553c0-1.453,1.195-2.648,2.625-2.648h5.812V63.389h-5.812c-1.43,0-2.625-1.195-2.625-2.625
		c0-1.453,1.195-2.648,2.625-2.648h16.898c1.43,0,2.648,1.195,2.648,2.648c0,1.43-1.219,2.625-2.648,2.625h-5.812v27.516h5.812
		c1.43,0,2.648,1.195,2.648,2.648c0,1.43-1.219,2.625-2.648,2.625h-16.898C611.203,96.178,610.007,94.983,610.007,93.553z"/>
	<path class="st0" d="M645.89,85.584V68.686c0-6.258,4.547-11.086,11.133-11.086c6.516,0,11.039,4.828,11.039,11.086v16.898
		c0,6.281-4.523,11.133-11.039,11.133C650.437,96.717,645.89,91.866,645.89,85.584z M657.023,91.42c3.492,0,5.742-2.297,5.742-5.836
		V68.686c0-3.516-2.25-5.812-5.742-5.812c-3.562,0-5.859,2.297-5.859,5.812v16.898C651.164,89.124,653.46,91.42,657.023,91.42z"/>
	<path class="st0" d="M682.382,93.553V60.764c0-1.453,1.195-2.648,2.648-2.648h8.484c6.586,0,11.039,4.711,11.039,10.852
		c0,3.445-1.617,6.68-3.844,8.156c2.273,1.594,3.844,4.758,3.844,8.25c0,6.164-4.5,10.805-11.039,10.805h-8.484
		C683.578,96.178,682.382,94.983,682.382,93.553z M693.515,74.499c3.281,0,5.766-2.32,5.766-5.531c0-3.445-2.25-5.578-5.766-5.578
		h-5.859v11.109H693.515z M693.515,90.905c3.516,0,5.766-2.109,5.766-5.531c0-3.258-2.438-5.602-5.766-5.602h-5.859v11.133H693.515z
		"/>
	<path class="st0" d="M717.656,85.584V68.686c0-6.258,4.547-11.086,11.133-11.086c6.516,0,11.039,4.828,11.039,11.086v16.898
		c0,6.281-4.523,11.133-11.039,11.133C722.203,96.717,717.656,91.866,717.656,85.584z M728.789,91.42
		c3.492,0,5.742-2.297,5.742-5.836V68.686c0-3.516-2.25-5.812-5.742-5.812c-3.562,0-5.859,2.297-5.859,5.812v16.898
		C722.929,89.124,725.226,91.42,728.789,91.42z"/>
	<path class="st0" d="M754.429,93.834v-33.07c0-1.453,1.219-2.648,2.648-2.648h8.508c6.469,0,11.039,4.805,11.039,11.086
		c0,4.992-2.883,9.07-7.125,10.477l6.727,12.82c1.008,1.688-0.094,3.961-2.25,3.961c-1.43,0-2.203-1.148-2.555-1.758l-7.523-14.367
		h-4.172v13.5c0,1.43-1.195,2.625-2.648,2.625C755.648,96.459,754.429,95.264,754.429,93.834z M765.585,75.061
		c3.492,0,5.742-2.297,5.742-5.859c0-3.492-2.25-5.812-5.742-5.812h-5.859v11.672H765.585z"/>
	<path class="st0" d="M789.421,85.584V68.686c0-6.258,4.547-11.086,11.133-11.086c6.516,0,11.039,4.828,11.039,11.086v16.898
		c0,6.281-4.523,11.133-11.039,11.133C793.968,96.717,789.421,91.866,789.421,85.584z M800.554,91.42
		c3.492,0,5.742-2.297,5.742-5.836V68.686c0-3.516-2.25-5.812-5.742-5.812c-3.562,0-5.859,2.297-5.859,5.812v16.898
		C794.695,89.124,796.992,91.42,800.554,91.42z"/>
	<path class="st0" d="M833.742,94.116l-8.297-33.023c-0.445-1.688,0.961-3.258,2.578-3.258c1.242,0,2.273,0.867,2.555,2.016
		l5.859,23.273l5.742-23.227c0.305-1.195,1.312-2.062,2.555-2.062c1.641,0,3.023,1.57,2.602,3.258l-8.18,33.023
		c-0.281,1.148-1.195,2.344-2.672,2.344C835.078,96.459,834.07,95.358,833.742,94.116z"/>
	<path class="st0" d="M869.671,93.834V77.616l-8.016-16.031c-0.094-0.258-0.234-0.68-0.234-1.125c0-1.43,1.195-2.625,2.625-2.625
		c1.055,0,1.922,0.68,2.367,1.477l5.906,11.672l5.789-11.672c0.445-0.797,1.312-1.477,2.367-1.477c1.43,0,2.625,1.195,2.625,2.625
		c0,0.445-0.141,0.867-0.234,1.125l-7.922,16.031v16.219c0,1.43-1.195,2.625-2.625,2.625
		C870.914,96.459,869.671,95.264,869.671,93.834z M867.281,51.647l7.336-4.266c0.352-0.211,0.867-0.398,1.336-0.398
		c1.5,0,2.648,1.172,2.648,2.648c0,0.961-0.586,1.805-1.336,2.25l-7.359,4.289c-0.352,0.211-0.867,0.375-1.336,0.375
		c-1.5,0-2.648-1.148-2.648-2.648C865.921,52.936,866.484,52.116,867.281,51.647z"/>
	<path class="st0" d="M897.07,85.584V68.686c0-6.305,4.781-11.086,11.133-11.086c6.281,0,11.039,4.781,11.039,11.086
		c0,1.477-1.148,2.625-2.648,2.625c-1.477,0-2.648-1.148-2.648-2.625c0-3.516-2.25-5.812-5.742-5.812
		c-3.562,0-5.859,2.297-5.859,5.812v16.898c0,3.539,2.297,5.836,5.859,5.836c3.492,0,5.742-2.297,5.742-5.836
		c0-1.5,1.172-2.648,2.648-2.648c1.5,0,2.648,1.148,2.648,2.648c0,6.328-4.758,11.133-11.039,11.133
		C901.851,96.717,897.07,91.913,897.07,85.584z"/>
	<path class="st0" d="M932.953,93.834V60.459c0-1.43,1.195-2.625,2.625-2.625c1.453,0,2.648,1.195,2.648,2.625v14.32h11.602v-14.32
		c0-1.43,1.219-2.625,2.648-2.625s2.648,1.195,2.648,2.625v33.375c0,1.43-1.219,2.625-2.648,2.625s-2.648-1.195-2.648-2.625V80.053
		h-11.602v13.781c0,1.43-1.195,2.625-2.648,2.625C934.148,96.459,932.953,95.264,932.953,93.834z"/>
	<path class="st0" d="M0,143.138c0-1.453,1.195-2.648,2.625-2.648c1.453,0,2.648,1.195,2.648,2.648c0,3.586,2.297,5.883,5.859,5.883
		c3.492,0,5.742-2.297,5.742-5.883c0-4.102-3.68-5.203-6.656-6.398c-4.805-1.969-9.375-4.172-9.375-10.992
		c0-6.094,4.383-10.547,10.523-10.547s10.5,4.688,10.5,10.547c0,1.547-1.242,2.648-2.625,2.648c-1.406,0-2.648-1.102-2.648-2.648
		c0-3.164-1.969-5.273-5.227-5.273c-3.352,0-5.227,1.969-5.227,5.273c0,3.375,1.969,4.523,6.234,6.141
		c5.672,2.109,9.797,5.18,9.797,11.25c0,6.281-4.805,11.18-11.039,11.18C4.828,154.317,0,149.419,0,143.138z"/>
	<path class="st0" d="M44.367,151.435v-30.445h-7.289c-1.406,0-2.648-1.195-2.648-2.625c0-1.453,1.195-2.648,2.648-2.648h19.758
		c1.453,0,2.648,1.195,2.648,2.648c0,1.43-1.195,2.625-2.648,2.625h-7.195v30.445c0,1.43-1.195,2.625-2.625,2.625
		C45.609,154.06,44.367,152.864,44.367,151.435z"/>
	<path class="st0" d="M71.766,143.185V118.06c0-1.477,1.148-2.625,2.625-2.625c1.5,0,2.648,1.148,2.648,2.625v25.125
		c0,3.562,2.25,5.859,5.812,5.859c3.492,0,5.789-2.297,5.789-5.859V118.06c0-1.477,1.172-2.625,2.648-2.625
		c1.5,0,2.648,1.148,2.648,2.625v25.125c0,6.352-4.805,11.133-11.086,11.133C76.5,154.317,71.766,149.536,71.766,143.185z"/>
	<path class="st0" d="M107.648,151.153v-32.789c0-1.594,1.055-2.648,2.625-2.648h8.508c6.281,0,11.039,4.617,11.039,11.086v15.844
		c0,6.328-4.758,11.133-11.039,11.133h-8.508C108.703,153.778,107.648,152.724,107.648,151.153z M118.781,148.505
		c3.492,0,5.742-2.297,5.742-5.859v-15.844c0-3.633-2.109-5.812-5.742-5.812h-5.859v27.516H118.781z"/>
	<path class="st0" d="M143.531,151.153c0-1.453,1.195-2.648,2.625-2.648h5.812v-27.516h-5.812c-1.43,0-2.625-1.195-2.625-2.625
		c0-1.453,1.195-2.648,2.625-2.648h16.898c1.43,0,2.648,1.195,2.648,2.648c0,1.43-1.219,2.625-2.648,2.625h-5.812v27.516h5.812
		c1.43,0,2.648,1.195,2.648,2.648c0,1.43-1.219,2.625-2.648,2.625h-16.898C144.727,153.778,143.531,152.583,143.531,151.153z"/>
	<path class="st0" d="M179.414,151.153c0-1.453,1.195-2.648,2.625-2.648h5.812v-27.516h-5.812c-1.43,0-2.625-1.195-2.625-2.625
		c0-1.453,1.195-2.648,2.625-2.648h16.898c1.43,0,2.648,1.195,2.648,2.648c0,1.43-1.219,2.625-2.648,2.625h-5.812v27.516h5.812
		c1.43,0,2.648,1.195,2.648,2.648c0,1.43-1.219,2.625-2.648,2.625h-16.898C180.609,153.778,179.414,152.583,179.414,151.153z
		 M185.508,109.247l7.336-4.266c0.352-0.211,0.867-0.398,1.336-0.398c1.5,0,2.648,1.172,2.648,2.648c0,0.961-0.586,1.805-1.336,2.25
		l-7.359,4.289c-0.352,0.211-0.867,0.375-1.336,0.375c-1.5,0-2.648-1.148-2.648-2.648
		C184.148,110.536,184.711,109.716,185.508,109.247z"/>
	<path class="st0" d="M250.734,162.661h23.039c1.453,0,2.648,1.195,2.648,2.648c0,1.43-1.195,2.625-2.648,2.625h-23.039
		c-1.43,0-2.648-1.195-2.648-2.625C248.086,163.856,249.305,162.661,250.734,162.661z M259.664,151.435v-30.445h-7.289
		c-1.406,0-2.648-1.195-2.648-2.625c0-1.453,1.195-2.648,2.648-2.648h19.758c1.453,0,2.648,1.195,2.648,2.648
		c0,1.43-1.195,2.625-2.648,2.625h-7.195v30.445c0,1.43-1.195,2.625-2.625,2.625C260.906,154.06,259.664,152.864,259.664,151.435z
		 M286.617,162.661h23.039c1.453,0,2.648,1.195,2.648,2.648c0,1.43-1.195,2.625-2.648,2.625h-23.039
		c-1.43,0-2.648-1.195-2.648-2.625C283.969,163.856,285.188,162.661,286.617,162.661z M287.062,118.06
		c0-1.477,1.148-2.625,2.625-2.625c1.5,0,2.648,1.148,2.648,2.625v25.125c0,3.562,2.25,5.859,5.812,5.859
		c3.492,0,5.789-2.297,5.789-5.859V118.06c0-1.477,1.172-2.625,2.648-2.625c1.5,0,2.648,1.148,2.648,2.625v25.125
		c0,6.352-4.805,11.133-11.086,11.133c-6.352,0-11.086-4.781-11.086-11.133V118.06z M322.5,162.661h23.508
		c1.453,0,2.648,1.195,2.648,2.648c0,1.43-1.195,2.625-2.648,2.625H322.5c-1.43,0-2.648-1.195-2.648-2.625
		C319.852,163.856,321.07,162.661,322.5,162.661z M324.867,118.06c0-1.43,1.195-2.625,2.625-2.625c1.453,0,2.648,1.195,2.648,2.625
		v30.445h12.609c1.453,0,2.648,1.195,2.648,2.648c0,1.43-1.195,2.625-2.648,2.625h-15.258c-1.43,0-2.625-1.195-2.625-2.625V118.06z"
		/>
</g>
</svg>
