<?xml version="1.0" encoding="utf-8"?>
<!-- Generator: Adobe Illustrator 26.0.3, SVG Export Plug-In . SVG Version: 6.00 Build 0)  -->
<svg version="1.1" id="Layer_1" xmlns="http://www.w3.org/2000/svg" xmlns:xlink="http://www.w3.org/1999/xlink" x="0px" y="0px"
	 viewBox="0 0 766.403 63.352" style="enable-background:new 0 0 766.403 63.352;" xml:space="preserve">
<style type="text/css">
	.st0{fill:#65A812;}
</style>
<g>
	<path class="st0" d="M0,46.57V13.781c0-1.453,1.195-2.648,2.648-2.648h16.898c1.43,0,2.625,1.195,2.625,2.648
		c0,1.43-1.195,2.625-2.625,2.625H5.297v11.109h10.031c1.43,0,2.625,1.195,2.625,2.625c0,1.453-1.195,2.648-2.625,2.648H5.297
		v11.133h14.25c1.43,0,2.625,1.195,2.625,2.648c0,1.43-1.195,2.625-2.625,2.625H2.648C1.195,49.195,0,48,0,46.57z"/>
	<path class="st0" d="M53.375,48.375L40.977,35.273v11.578c0,1.43-1.195,2.625-2.625,2.625c-1.453,0-2.648-1.195-2.648-2.625V13.477
		c0-1.43,1.195-2.625,2.648-2.625c1.43,0,2.625,1.195,2.625,2.625V24l11.531-12.281c0.516-0.539,1.195-0.867,1.969-0.867
		c1.43,0,2.648,1.195,2.648,2.625c0,0.914-0.422,1.453-0.773,1.828L42.945,29.672l14.508,15.352
		c0.469,0.492,0.773,1.195,0.773,1.828c0,1.43-1.219,2.625-2.648,2.625C54.664,49.477,53.984,49.008,53.375,48.375z"/>
	<path class="st0" d="M69.805,38.602V21.703c0-6.258,4.547-11.086,11.133-11.086c6.516,0,11.039,4.828,11.039,11.086v16.898
		c0,6.281-4.523,11.133-11.039,11.133C74.352,49.734,69.805,44.883,69.805,38.602z M80.938,44.438c3.492,0,5.742-2.297,5.742-5.836
		V21.703c0-3.516-2.25-5.812-5.742-5.812c-3.562,0-5.859,2.297-5.859,5.812v16.898C75.078,42.141,77.375,44.438,80.938,44.438z"/>
	<path class="st0" d="M105.383,46.852V13.477c0-1.43,1.195-2.625,2.695-2.625c1.008,0,1.805,0.516,2.344,1.523l12.82,24.047V13.477
		c0-1.43,1.195-2.625,2.648-2.625c1.43,0,2.625,1.195,2.625,2.625v33.375c0,1.43-1.195,2.625-2.625,2.625
		c-1.078,0-1.945-0.562-2.508-1.617l-12.727-23.836v22.828c0,1.43-1.195,2.625-2.625,2.625
		C106.578,49.477,105.383,48.281,105.383,46.852z"/>
	<path class="st0" d="M141.921,38.602V21.703c0-6.258,4.547-11.086,11.133-11.086c6.516,0,11.039,4.828,11.039,11.086v16.898
		c0,6.281-4.523,11.133-11.039,11.133C146.468,49.734,141.921,44.883,141.921,38.602z M153.054,44.438
		c3.492,0,5.742-2.297,5.742-5.836V21.703c0-3.516-2.25-5.812-5.742-5.812c-3.562,0-5.859,2.297-5.859,5.812v16.898
		C147.194,42.141,149.491,44.438,153.054,44.438z"/>
	<path class="st0" d="M176.965,46.852V13.477c0-1.43,1.195-2.625,2.648-2.625c1.43,0,2.156,1.055,2.531,1.781l7.594,13.008
		l7.383-12.773c0.82-1.453,1.734-2.016,2.789-2.016c1.336,0,2.484,1.148,2.484,2.625v33.375c0,1.43-1.195,2.625-2.625,2.625
		c-1.453,0-2.648-1.195-2.648-2.625V23.461l-4.664,7.922c-0.656,1.102-1.336,1.969-2.719,1.969c-1.406,0-2.109-0.914-2.742-1.969
		l-4.758-8.062v23.531c0,1.43-1.195,2.625-2.625,2.625C178.16,49.477,176.965,48.281,176.965,46.852z"/>
	<path class="st0" d="M215.189,46.57c0-1.453,1.195-2.648,2.625-2.648h5.812V16.406h-5.812c-1.43,0-2.625-1.195-2.625-2.625
		c0-1.453,1.195-2.648,2.625-2.648h16.898c1.43,0,2.648,1.195,2.648,2.648c0,1.43-1.219,2.625-2.648,2.625H228.9v27.516h5.812
		c1.43,0,2.648,1.195,2.648,2.648c0,1.43-1.219,2.625-2.648,2.625h-16.898C216.385,49.195,215.189,48,215.189,46.57z"/>
	<path class="st0" d="M249.944,38.602V21.703c0-6.305,4.781-11.086,11.133-11.086c6.281,0,11.039,4.781,11.039,11.086
		c0,1.477-1.148,2.625-2.648,2.625c-1.477,0-2.648-1.148-2.648-2.625c0-3.516-2.25-5.812-5.742-5.812
		c-3.562,0-5.859,2.297-5.859,5.812v16.898c0,3.539,2.297,5.836,5.859,5.836c3.492,0,5.742-2.297,5.742-5.836
		c0-1.5,1.172-2.648,2.648-2.648c1.5,0,2.648,1.148,2.648,2.648c0,6.328-4.758,11.133-11.039,11.133
		C254.726,49.734,249.944,44.93,249.944,38.602z"/>
	<path class="st0" d="M304.112,48.375l-12.398-13.102v11.578c0,1.43-1.195,2.625-2.625,2.625c-1.453,0-2.648-1.195-2.648-2.625
		V13.477c0-1.43,1.195-2.625,2.648-2.625c1.43,0,2.625,1.195,2.625,2.625V24l11.531-12.281c0.516-0.539,1.195-0.867,1.969-0.867
		c1.43,0,2.648,1.195,2.648,2.625c0,0.914-0.422,1.453-0.773,1.828l-13.406,14.367l14.508,15.352
		c0.469,0.492,0.773,1.195,0.773,1.828c0,1.43-1.219,2.625-2.648,2.625C305.401,49.477,304.722,49.008,304.112,48.375z"/>
	<path class="st0" d="M319.84,46.172l8.344-33.023c0.328-1.289,1.242-2.297,2.695-2.297c1.477,0,2.391,1.055,2.719,2.344
		l8.227,33.023c0.422,1.688-0.914,3.258-2.555,3.258c-1.195,0-2.297-0.797-2.602-2.062l-1.57-6.422h-8.508l-1.664,6.469
		c-0.281,1.125-1.266,2.016-2.555,2.016C320.754,49.477,319.395,47.906,319.84,46.172z M325.887,4.664l7.336-4.266
		C333.574,0.188,334.09,0,334.559,0c1.5,0,2.648,1.172,2.648,2.648c0,0.961-0.586,1.805-1.336,2.25l-7.359,4.289
		c-0.352,0.211-0.867,0.375-1.336,0.375c-1.5,0-2.648-1.148-2.648-2.648C324.527,5.953,325.09,5.133,325.887,4.664z M333.762,35.719
		l-2.883-11.578l-2.977,11.578H333.762z"/>
	<path class="st0" d="M395.283,46.852v-33.07c0-1.453,1.219-2.648,2.648-2.648h16.898c1.43,0,2.648,1.195,2.648,2.648
		c0,1.43-1.219,2.625-2.648,2.625h-14.25v11.109h10.031c1.43,0,2.625,1.195,2.625,2.625c0,1.453-1.195,2.648-2.625,2.648H400.58
		v14.062c0,1.43-1.219,2.625-2.648,2.625S395.283,48.281,395.283,46.852z"/>
	<path class="st0" d="M426.044,46.172l8.344-33.023c0.328-1.289,1.242-2.297,2.695-2.297c1.477,0,2.391,1.055,2.719,2.344
		l8.227,33.023c0.422,1.688-0.914,3.258-2.555,3.258c-1.195,0-2.297-0.797-2.602-2.062l-1.57-6.422h-8.508l-1.664,6.469
		c-0.281,1.125-1.266,2.016-2.555,2.016C426.958,49.477,425.599,47.906,426.044,46.172z M439.966,35.719l-2.883-11.578
		l-2.977,11.578H439.966z"/>
	<path class="st0" d="M480.119,48.375l-12.398-13.102v11.578c0,1.43-1.195,2.625-2.625,2.625c-1.453,0-2.648-1.195-2.648-2.625
		V13.477c0-1.43,1.195-2.625,2.648-2.625c1.43,0,2.625,1.195,2.625,2.625V24l11.531-12.281c0.516-0.539,1.195-0.867,1.969-0.867
		c1.43,0,2.648,1.195,2.648,2.625c0,0.914-0.422,1.453-0.773,1.828l-13.406,14.367l14.508,15.352
		c0.469,0.492,0.773,1.195,0.773,1.828c0,1.43-1.219,2.625-2.648,2.625C481.408,49.477,480.729,49.008,480.119,48.375z"/>
	<path class="st0" d="M497.192,38.602V13.477c0-1.477,1.148-2.625,2.625-2.625c1.5,0,2.648,1.148,2.648,2.625v25.125
		c0,3.562,2.25,5.859,5.812,5.859c3.492,0,5.789-2.297,5.789-5.859V13.477c0-1.477,1.172-2.625,2.648-2.625
		c1.5,0,2.648,1.148,2.648,2.625v25.125c0,6.352-4.805,11.133-11.086,11.133C501.927,49.734,497.192,44.953,497.192,38.602z"/>
	<path class="st0" d="M535.231,46.57V13.477c0-1.43,1.195-2.625,2.625-2.625c1.453,0,2.648,1.195,2.648,2.625v30.445h14.25
		c1.453,0,2.648,1.195,2.648,2.648c0,1.43-1.195,2.625-2.648,2.625h-16.898C536.427,49.195,535.231,48,535.231,46.57z"/>
	<path class="st0" d="M572.162,46.852V16.406h-7.289c-1.406,0-2.648-1.195-2.648-2.625c0-1.453,1.195-2.648,2.648-2.648h19.758
		c1.453,0,2.648,1.195,2.648,2.648c0,1.43-1.195,2.625-2.648,2.625h-7.195v30.445c0,1.43-1.195,2.625-2.625,2.625
		C573.404,49.477,572.162,48.281,572.162,46.852z"/>
	<path class="st0" d="M595.335,46.172l8.344-33.023c0.328-1.289,1.242-2.297,2.695-2.297c1.477,0,2.391,1.055,2.719,2.344
		l8.227,33.023c0.422,1.688-0.914,3.258-2.555,3.258c-1.195,0-2.297-0.797-2.602-2.062l-1.57-6.422h-8.508l-1.664,6.469
		c-0.281,1.125-1.266,2.016-2.555,2.016C596.249,49.477,594.89,47.906,595.335,46.172z M609.257,35.719l-2.883-11.578l-2.977,11.578
		H609.257z"/>
	<path class="st0" d="M668.481,58.078h23.039c1.453,0,2.648,1.195,2.648,2.648c0,1.43-1.195,2.625-2.648,2.625h-23.039
		c-1.43,0-2.648-1.195-2.648-2.625C665.833,59.273,667.052,58.078,668.481,58.078z M677.411,46.852V16.406h-7.289
		c-1.406,0-2.648-1.195-2.648-2.625c0-1.453,1.195-2.648,2.648-2.648h19.758c1.453,0,2.648,1.195,2.648,2.648
		c0,1.43-1.195,2.625-2.648,2.625h-7.195v30.445c0,1.43-1.195,2.625-2.625,2.625C678.653,49.477,677.411,48.281,677.411,46.852z
		 M704.364,58.078h23.039c1.453,0,2.648,1.195,2.648,2.648c0,1.43-1.195,2.625-2.648,2.625h-23.039c-1.43,0-2.648-1.195-2.648-2.625
		C701.716,59.273,702.935,58.078,704.364,58.078z M704.81,13.477c0-1.477,1.148-2.625,2.625-2.625c1.5,0,2.648,1.148,2.648,2.625
		v25.125c0,3.562,2.25,5.859,5.812,5.859c3.492,0,5.789-2.297,5.789-5.859V13.477c0-1.477,1.172-2.625,2.648-2.625
		c1.5,0,2.648,1.148,2.648,2.625v25.125c0,6.352-4.805,11.133-11.086,11.133c-6.352,0-11.086-4.781-11.086-11.133V13.477z
		 M740.247,58.078h23.508c1.453,0,2.648,1.195,2.648,2.648c0,1.43-1.195,2.625-2.648,2.625h-23.508c-1.43,0-2.648-1.195-2.648-2.625
		C737.599,59.273,738.817,58.078,740.247,58.078z M742.614,13.477c0-1.43,1.195-2.625,2.625-2.625c1.453,0,2.648,1.195,2.648,2.625
		v30.445h12.609c1.453,0,2.648,1.195,2.648,2.648c0,1.43-1.195,2.625-2.648,2.625h-15.258c-1.43,0-2.625-1.195-2.625-2.625V13.477z"
		/>
</g>
</svg>
