<svg width="153" height="38" viewBox="0 0 153 38" fill="none" xmlns="http://www.w3.org/2000/svg">
<g clip-path="url(#clip0_1_2254)">
<path d="M46.6741 26.1745H57.4309V22.9345H50.4973V10.7305H46.6741V26.1745Z" fill="#340E0E"/>
<path d="M63.8038 24.0146C62.2702 24.0146 61.471 22.6754 61.471 20.6666C61.471 18.6578 62.2702 17.297 63.8038 17.297C65.3374 17.297 66.1582 18.6578 66.1582 20.6666C66.1582 22.6754 65.3374 24.0146 63.8038 24.0146ZM63.8254 26.5202C67.3894 26.5202 69.7222 23.993 69.7222 20.6666C69.7222 17.3402 67.3894 14.813 63.8254 14.813C60.283 14.813 57.907 17.3402 57.907 20.6666C57.907 23.993 60.283 26.5202 63.8254 26.5202Z" fill="#340E0E"/>
<path d="M75.8913 29.9979C77.5329 29.9979 78.9801 29.6307 79.9521 28.7667C80.8377 27.9675 81.4209 26.7579 81.4209 25.0947V15.1155H78.0513V16.3035H78.0081C77.3601 15.3747 76.3665 14.7915 74.8977 14.7915C72.1545 14.7915 70.2537 17.0811 70.2537 20.3211C70.2537 23.7123 72.5649 25.5699 75.0489 25.5699C76.3881 25.5699 77.2305 25.0299 77.8785 24.2955H77.9649V25.3971C77.9649 26.7363 77.3385 27.5139 75.8481 27.5139C74.6817 27.5139 74.0985 27.0171 73.9041 26.4339H70.4913C70.8369 28.7451 72.8457 29.9979 75.8913 29.9979ZM75.8697 22.9563C74.5521 22.9563 73.6881 21.8763 73.6881 20.2131C73.6881 18.5283 74.5521 17.4483 75.8697 17.4483C77.3385 17.4483 78.1161 18.7011 78.1161 20.1915C78.1161 21.7467 77.4033 22.9563 75.8697 22.9563Z" fill="#340E0E"/>
<path d="M88.3494 24.0146C86.8158 24.0146 86.0166 22.6754 86.0166 20.6666C86.0166 18.6578 86.8158 17.297 88.3494 17.297C89.883 17.297 90.7038 18.6578 90.7038 20.6666C90.7038 22.6754 89.883 24.0146 88.3494 24.0146ZM88.371 26.5202C91.935 26.5202 94.2678 23.993 94.2678 20.6666C94.2678 17.3402 91.935 14.813 88.371 14.813C84.8286 14.813 82.4526 17.3402 82.4526 20.6666C82.4526 23.993 84.8286 26.5202 88.371 26.5202Z" fill="#340E0E"/>
<path d="M95.2957 26.1745H98.8164V15.1153H95.2957V26.1745ZM95.2957 13.5817H98.8164V10.7305H95.2957V13.5817Z" fill="#340E0E"/>
<path d="M100.345 29.8251H103.866V25.0299H103.909C104.6 25.9587 105.615 26.5203 107.041 26.5203C109.935 26.5203 111.858 24.2307 111.858 20.6451C111.858 17.3187 110.065 14.7915 107.127 14.7915C105.615 14.7915 104.535 15.4611 103.779 16.4547H103.714V15.1155H100.345V29.8251ZM106.134 23.7987C104.622 23.7987 103.758 22.5675 103.758 20.7747C103.758 18.9819 104.535 17.6211 106.069 17.6211C107.581 17.6211 108.294 18.8739 108.294 20.7747C108.294 22.6539 107.473 23.7987 106.134 23.7987Z" fill="#340E0E"/>
<path d="M117.589 26.5203C120.484 26.5203 122.622 25.2675 122.622 22.8483C122.622 20.0187 120.333 19.5219 118.389 19.1979C116.985 18.9387 115.732 18.8307 115.732 18.0531C115.732 17.3619 116.401 17.0379 117.265 17.0379C118.237 17.0379 118.907 17.3403 119.037 18.3339H122.277C122.104 16.1523 120.419 14.7915 117.287 14.7915C114.673 14.7915 112.513 16.0011 112.513 18.3339C112.513 20.9259 114.565 21.4443 116.488 21.7683C117.957 22.0275 119.296 22.1355 119.296 23.1291C119.296 23.8419 118.626 24.2307 117.568 24.2307C116.401 24.2307 115.667 23.6907 115.537 22.5891H112.211C112.319 25.0299 114.349 26.5203 117.589 26.5203Z" fill="#340E0E"/>
<path d="M127.405 26.4984C128.938 26.4984 129.91 25.8936 130.71 24.8136H130.774V26.1744H134.144V15.1152H130.623V21.2928C130.623 22.6104 129.889 23.5176 128.679 23.5176C127.556 23.5176 127.016 22.848 127.016 21.6384V15.1152H123.517V22.3728C123.517 24.8352 124.856 26.4984 127.405 26.4984Z" fill="#340E0E"/>
<path d="M135.675 26.1747H139.196V19.9755C139.196 18.6579 139.844 17.7291 140.945 17.7291C142.004 17.7291 142.5 18.4203 142.5 19.6083V26.1747H146.021V19.9755C146.021 18.6579 146.648 17.7291 147.771 17.7291C148.829 17.7291 149.326 18.4203 149.326 19.6083V26.1747H152.847V18.9819C152.847 16.4979 151.594 14.7915 149.088 14.7915C147.663 14.7915 146.475 15.3963 145.611 16.7355H145.568C145.006 15.5475 143.904 14.7915 142.457 14.7915C140.859 14.7915 139.8 15.5475 139.109 16.6923H139.044V15.1155H135.675V26.1747Z" fill="#340E0E"/>
<path fill-rule="evenodd" clip-rule="evenodd" d="M18.6157 36.9746C28.5569 36.9746 36.6157 28.9157 36.6157 18.9746C36.6157 9.03349 28.5569 0.974609 18.6157 0.974609C8.67458 0.974609 0.615723 9.03349 0.615723 18.9746C0.615723 28.9157 8.67458 36.9746 18.6157 36.9746ZM24.2311 9.35977C24.5044 8.38885 23.5622 7.81473 22.7017 8.42778L10.6895 16.9852C9.75632 17.6501 9.90311 18.9746 10.91 18.9746H14.0732V18.9501H20.238L15.2148 20.7225L13.0004 28.5895C12.727 29.5604 13.6692 30.1345 14.5297 29.5214L26.5419 20.964C27.4752 20.2992 27.3283 18.9746 26.3214 18.9746H21.5246L24.2311 9.35977Z" fill="#F5841F"/>
</g>
<defs>
<clipPath id="clip0_1_2254">
<rect width="153" height="36.9" fill="white" transform="translate(0 0.850098)"/>
</clipPath>
</defs>
</svg>
